<?xml version="1.0" encoding="UTF-8"?>
<!DOCTYPE svg PUBLIC "-//W3C//DTD SVG 1.1//EN" "http://www.w3.org/Graphics/SVG/1.1/DTD/svg11.dtd">
<!-- Creator: CorelDRAW 2019 (64-Bit) -->
<svg xmlns="http://www.w3.org/2000/svg" xml:space="preserve" width="500mm" height="500mm" version="1.1" style="shape-rendering:geometricPrecision; text-rendering:geometricPrecision; image-rendering:optimizeQuality; fill-rule:evenodd; clip-rule:evenodd"
viewBox="0 0 50000 50000"
 xmlns:xlink="http://www.w3.org/1999/xlink">
 <defs>
  <style type="text/css">
   <![CDATA[
    .str0 {stroke:#EEFFFF;stroke-width:20;stroke-miterlimit:22.9256}
    .fil0 {fill:#EEFFFF}
   ]]>
  </style>
   <clipPath id="id0">
    <rect x="-36418.62" y="1893.05" width="29703.88" height="31714.72"/>
   </clipPath>
 </defs>
 <g id="Слой_x0020_1">
  <metadata id="CorelCorpID_0Corel-Layer"/>
  <path class="fil0 str0" d="M24997.93 1023.91c13242.77,0 23978.16,10735.39 23978.16,23978.16 0,13242.77 -10735.39,23978.16 -23978.16,23978.16 -13242.77,0 -23978.16,-10735.39 -23978.16,-23978.16 0,-13242.77 10735.39,-23978.16 23978.16,-23978.16zm0 648.79c12884.45,0 23329.37,10444.92 23329.37,23329.37 0,12884.45 -10444.92,23329.37 -23329.37,23329.37 -12884.45,0 -23329.37,-10444.92 -23329.37,-23329.37 0,-12884.45 10444.92,-23329.37 23329.37,-23329.37z"/>
  <g style="clip-path:url(#id0)">
   <image x="-36418.62" y="1893.05" width="29703.88" height="31714.72" xlink:href="Безымянный-2_Images\Безымянный-2_ImgID1.png"/>
  </g>
  <circle class="fil0 str0" cx="24997.93" cy="15318.3" r="2517.61"/>
  <rect class="fil0 str0" x="23913.15" y="20420.68" width="2169.59" height="24606.25"/>
 </g>
</svg>
