<?xml version="1.0" encoding="UTF-8"?>
<!DOCTYPE svg PUBLIC "-//W3C//DTD SVG 1.1//EN" "http://www.w3.org/Graphics/SVG/1.1/DTD/svg11.dtd">
<!-- Creator: CorelDRAW 2019 (64-Bit) -->
<svg xmlns="http://www.w3.org/2000/svg" xml:space="preserve" width="500mm" height="500mm" version="1.1" style="shape-rendering:geometricPrecision; text-rendering:geometricPrecision; image-rendering:optimizeQuality; fill-rule:evenodd; clip-rule:evenodd"
viewBox="0 0 50000 50000"
 xmlns:xlink="http://www.w3.org/1999/xlink">
 <defs>
  <style type="text/css">
   <![CDATA[
    .str0 {stroke:azure;stroke-width:20;stroke-miterlimit:22.9256}
    .fil0 {fill:azure}
   ]]>
  </style>
 </defs>
 <g id="Слой_x0020_1">
  <metadata id="CorelCorpID_0Corel-Layer"/>
  <path class="fil0 str0" d="M31681.34 26755.46c-1848.06,256.56 -3209.11,-1402.25 -3836.35,-2510.61 -830.42,-1467.26 -878.33,-3359.28 -1124.22,-5187.38 2197.4,584.39 4300.46,2259.52 5006.78,4057.69 -935.39,188.01 -451.6,396.98 -1039.44,835.98 -252.6,-679.06 714.51,-967.06 110.76,-1720.88l-558.04 1047.89c-270.44,-538.4 -60.27,-886.78 -6.2,-1611.63 -39.91,23.77 -85.98,64.96 -109.85,85.65l-278.53 253.12c-2.03,2.16 -190.95,264.97 -211.46,289.34 -340.28,-529.17 -620.89,-1029.14 -1270.93,-1178.61l386.44 763.74c-270.53,265.35 0.1,61.06 -457.94,242.31 -978.88,387.46 212.33,-157.98 -329.25,82.07 307.59,421.9 172.46,253.71 821.82,445.3 797.03,235.18 230.62,-343.32 723.28,527.93 -297.89,236.51 201.71,33.79 -304.33,102.62 -770,104.79 -371.09,-232.92 -914.65,59.59 679.66,602.04 1241.05,219.92 1881.26,824.76 -308.33,215.14 163.77,36.51 -318.08,97.61 -732.35,92.88 -377.76,-198.44 -916.44,50.81 210.44,272.47 37.24,140.93 443.41,342.59 791.84,393.2 1082.79,44.87 1441.61,792.85 -668.53,248.74 -1229.74,-271.64 -1695.59,0 745.68,793.82 2015.6,198.9 2555.94,1307.26zm-5972.33 9054.95c-32.87,34.12 -63.26,87.22 -79.91,117.52 -16.5,30.03 -55.4,82.26 -73.93,119.68l-452.57 1435.73 -3510.96 300.51c491.65,-1107.39 2070.37,-4101.46 3554.5,-3241.53 619.89,359.19 232.61,-14.57 547.65,496.57 -990.88,375.46 -1264.96,-114.3 -1765.15,141.39l807.88 519.87c-502.5,206.59 -615.51,201.39 -842.18,611.38 506.03,-86.49 965.18,-342.03 1357.19,-557.53 415.32,-228.29 698.59,-465.86 1215.85,-584.12 -41.1,719.25 -186.49,771.94 165.66,1335.04 234.63,-328.8 133.11,-965.32 158.26,-1158.85 80.42,-618.96 -82.44,-366.86 490.59,-610.82 311.46,550.87 -135.27,655.19 324.38,1196.13 661.31,-843.38 -367.97,-1025.37 486.59,-1686.54 480.34,129.48 166.95,321.67 644.66,779.48 202.86,-945.92 -188.37,-833.22 328.56,-1277.88 114.35,103.91 406.91,-332.2 177.85,744.89 -101.57,477.72 -884.86,1448.6 -1204.41,1771.09 -564.38,569.63 -1403.9,1055.85 -2419.02,1124.09l88.51 -1576.1zm-5888.41 -4183.67c794.37,1377.24 -1026.66,3335.6 -2605.65,3604.8 -122.48,-2064.61 -341.2,-2294 334.82,-2636.45 255.22,184.01 40.46,-88.23 217.61,249.43l232.29 913.37c574.31,-638.23 -171.96,-757.36 198.9,-1460.88 1010.47,178.26 25.79,1038.89 1120.86,1364.6 17.15,-675.61 -298.58,-1047.94 -491.46,-1563.13 341.62,-302.54 423.18,-359.14 992.63,-471.74zm2443.84 -9422.6c-1646.76,650.69 -3301.66,-1407.26 -3930.56,-2407.2 -811.93,-1290.98 -859.79,-3758.6 -1201.55,-5330.97 394.91,43.36 1771.18,748.57 2294.65,977.91 1167.21,511.28 2763.95,2448.13 3197.52,3473.91 525.72,1243.58 502.36,1588.32 -43.68,2629.87 -1269.09,-792.34 468.06,-719.56 -202.85,-1734.72l-358.64 859.29c-1517.88,-904.07 -494.13,-2044.43 -390.77,-2884.55 -848.99,457.17 -162.94,540.34 -1069.36,962.75l81.47 -1726.96c-355.23,449.17 -183.68,457.31 -332.79,949.46 -197.34,-216.51 -319.23,-400.47 -551.61,-721.36 -384.7,-531.14 -157.29,-442.4 -783.01,-664.29 143.96,497.76 310.77,700.06 504.06,1096.17 -766.87,-64.92 -819.29,-135.87 -1143.11,141.24 1082.1,544.67 1147.99,-157.93 1721.57,811.02 -506,302.12 -937.46,-45.01 -1530.03,-128.65 128.79,357.48 141.48,493.21 1195.67,716.9 842.01,178.62 718.55,-43.73 1050.7,725.45 -482.86,-36.28 -559.83,-86.86 -985.13,-188.06 -851.52,-202.62 -682.69,-24.41 -762.05,35.64 1943.65,876.16 2002.41,329.52 2427.2,1292.73l-1898.54 -283.09 1509.29 655.14c817.45,190.45 808.62,79.32 1201.55,742.37zm-6823.29 13206.4c-937.78,81.7 -3393.3,67.86 -4013.69,-373.81 265.57,-314.22 623.47,-591.65 863.34,-898 216.28,-276.2 440.01,-649.04 677.4,-947.48 1584.51,-1992.07 3777.36,-3534.23 6470.04,-2128.76 -862.74,421.16 -311.32,230.95 -947.98,-59.68 -753.22,-343.87 -891.48,-185.57 -1152.87,49.66l1091.67 315.78c-211.46,251.27 327.46,249.29 -539.88,331.64 -406.54,38.58 -882.51,-503.05 -1444.83,-250.26 304.79,454.5 304.11,269.48 874.93,594.32 -780.53,447.97 -1139.49,-445.17 -1834.36,-107.68 448.2,493.57 645.22,172.6 775.66,835.79l-1695.27 -114.44 876.53 414.04c-291.87,455.64 -518.78,300.88 -939.29,1058.74 673.99,-180 699.24,-282.99 1248.59,-545.62l-309.99 1825.76zm-219.13 -14179.62c-1531.82,713.21 -3600.99,-1731.41 -4265.29,-2811.45 -1123.53,-1826.72 -1067.25,-3636.07 -1520.51,-5947.45 3822.84,738.83 7206.99,4840.34 6536.35,8625.7l-301.76 -249.44c-128.09,-108.14 -113.1,-107.86 -253.11,-219.96 76.14,-834.09 473.49,-945.73 74.49,-1947.09 -167.37,349.02 -211.23,894.46 -375.46,1213.14 -641.63,-508.02 -354.59,-464.38 -135.14,-1059.94 123.73,-335.69 185.07,-252.47 159.6,-672.85 -47.45,-782.74 -38.26,-304.42 -186.68,-493.9 -333.25,419.14 -324.37,815.15 -703.28,1175.76 -388.98,-875.11 -222.63,-703.61 -44,-1107.39 227.54,-514.45 346.63,-595.38 98.48,-1024.68 -482.4,449.12 -378.95,789.18 -654.32,1141.6 -467.6,-1045.87 45.43,-1030.15 249.11,-2030.55 -409.07,217.9 -292.88,251.97 -758.23,728.03l-205.2 176.1c-593.44,-1040.22 -37.2,-295.83 -129.11,-1642.72 -418.31,511.19 -105.56,320.1 -622.59,506.59 -158.26,-408.38 -307.14,-753.64 -766.19,-960.08 32.37,520.75 156.01,679.79 445.95,1047.8 -33.43,25.94 -91.64,36.88 -117.98,46.76 -26.26,9.84 -85.84,33.34 -118.12,45.34 -841.82,312.61 -64.78,-312.65 -670.23,270.21 862.56,781.91 932.77,-379.41 1745.3,1318.53l-1459.5 -338.4c210.91,584.48 436.57,576.52 1122.71,661.21 868.48,107.18 355.5,-388.19 962.78,629.49l-524.33 83.73c-482.69,59.13 -35.96,-130.72 -448.2,78.49l587.6 389.53c1029.41,434.72 911.2,73.38 1402.62,1086.15 -613.95,-94.31 -1073.87,-398.96 -1533.61,-178.08 269.94,421.99 -57.61,169.94 552.25,458.91 1082.88,513.12 1460.41,94.72 1855.6,1000.91zm-577.36 6953.92c-696.16,1494.71 -1453.93,2687.58 -3573.95,2794.57 -965.41,48.74 -2218.23,-0.51 -3175.32,-116.97 -1090.88,-132.79 -1965.07,49.47 -3047.22,-5.47 415.42,-686.6 2917.89,-2564.08 3766.33,-2992.65 3619.24,-1828.06 4392.37,-25.88 4766.63,56.51 -1529.7,379.51 -1561.47,-700.35 -2317.36,-163.73 284.33,192.79 450.04,213.43 861.68,448.52 -750.41,662.04 -874.14,-447 -2120.52,-320.93 380.84,654.96 429.34,199.59 799.93,797.82 -1006.19,121.57 -1201.92,-495.19 -1920.11,-152.51 309.44,423.14 194.86,173.2 716.49,486.63 -524.71,436.52 -824.31,206.17 -1320.97,717.36 534.6,139.96 1469.89,-271.96 2028.3,-397.81 -292.33,771.94 -628.16,750.92 -741.04,1220.73 814.74,-14.07 1047.48,-589.44 1270.66,-1453.52l1026.61 -180.41c-193.34,611.69 -368.56,668.34 -465.85,1240.82 605.9,-70.35 1599.96,-954.47 842.83,-1398.3l811.06 -197.39c-213.99,435.74 -464.52,660.81 -479.01,1204.82 724.03,-144.51 675.84,-503.23 949.37,-1292.91l1321.46 -295.18zm-3319.82 -4267.22c-849.69,1663.64 -5348.17,2012.94 -8168.81,-1591.04 -484.25,-618.68 -1600.83,-1553.79 -1917.76,-2136.85 4136.08,-585.71 8096.94,-1578.57 10206.34,3077.57 116.33,-136.74 567.93,125.52 106.16,-869.5 -639.33,-1377.56 -2439.15,-2885.14 -3906.1,-3124.74 -1286.66,-210.17 -6430.54,160.51 -7381.84,704.9 60.51,703.47 642.51,814.09 1081.46,1238.29 1149.6,1111.07 2229.87,2699.26 3532.85,3440.98 2188.85,1246.02 5166.51,1367.13 6833.36,-419.78 559.24,83.08 2699.72,989.59 3466.04,1328.09 828.49,365.98 2979.5,750.13 3566.32,1366.48 -812.48,115.22 -1572.41,226.21 -2379.47,406.12 -249.71,55.68 -906.01,185.66 -1124.87,182.31 -1033.64,-16 -2197.49,-1650.08 -5300.07,-764.16 -2085.26,595.42 -3327,1867.6 -4788.48,2996.18 -500.19,386.31 -1071.98,854.37 -957.77,1434.58 525.99,278.12 6023.82,392.47 7040.45,324.14 1678.72,-112.78 3790.14,-1541.93 3722.55,-3426.59 5820.97,-929.4 4680.89,-1090.05 10039.35,815.16 -575.23,300.56 -1416.36,481.62 -2114.82,740.89 -731.66,271.6 -1346.07,602.18 -2024.43,900.4 -1286.3,565.4 -2268.81,-1015.66 -4545.66,-512.52 -2511.07,554.96 -3265.3,2431.94 -4751.65,4025.69 -344.88,369.85 -1050.42,1119.76 -863.98,1655.27 970.7,372.61 5961.84,488.24 6949.32,49.84 838.88,-372.47 1557.11,-932.35 2162.37,-1567.04 364.33,-382.13 416.75,-763.56 558.87,-1409.47 213.29,-969.45 132.97,-496.52 -135.78,-1276.87 1056.04,-740.76 5085.68,-2345.04 6687.76,-2080.15 1708.92,282.49 4281.97,1497.01 6767.56,1792.28 -1212.4,324.01 -2736.36,1116.08 -3768.34,1396.83 -669.73,182.21 -1195.44,-292.01 -2147.2,-209.11 -4041.46,351.96 -7261.19,4457.1 -6869.59,5903.72 641.58,318.13 5341.87,-328.93 6175.18,-739.01 1532.09,-753.91 2723.17,-1993.62 2714.89,-4237.74 4799.83,-2278.56 4630.31,-1793.34 9241.3,-1102.75 2960.88,443.42 7829.17,1205.14 10702.68,515.19l-1197 -260.47c-375.23,-1.33 -764.25,21.24 -1147.3,20 -770.05,-2.43 -1498.99,-44.5 -2266.19,-97.06 -5361.27,-367.23 -7131.58,-30.3 -10775.55,-3644.16 -1793.26,-1778.44 -1465.8,-1191.3 -1435.18,-3148.1 39.36,-2517.04 -1342.47,-4849.53 -3546.87,-5987.17 -596.43,-307.83 -2616.49,-1678.4 -3171.77,-1079.9 -294.36,317.3 38.16,5931.96 3052.18,8019.01 1189.15,823.43 1458.35,769.68 2906.03,502.13 797.4,1598.4 2628.13,2891.4 3920.99,4077.05 -1627.68,-100.83 -3071.54,-687.24 -4572.97,-1014.19 -2124.43,-462.59 -2470.93,-724.49 -3700.67,-1795.6 -1697.61,-1478.67 -3807.33,-4039.9 -4895.28,-6132.61 539.79,-1322.89 1100.82,-1170.75 405.9,-3140.97 -1185.78,-3361.85 -5916.09,-5520.63 -6818.79,-5238.56 -5.42,555.65 409.44,2445.14 548.02,3185.67 428.2,2287.93 622.59,3415.37 2547.62,4940.94 792.44,627.97 1729.48,824.9 2991.82,748.8 843.7,1071.53 1483.26,2227.06 2238.46,3262.54 799.93,1096.77 1963.28,1976.02 2637.88,2935.82 -1681.71,-400.34 -5905.39,-1480.88 -6966.89,-2336.9 -1473.29,-1188.13 -3098.03,-3197.58 -4252.5,-4843.93 -68.33,-274.3 1644.14,-2656.95 -1779.32,-6799.94 -1195.21,-1446.39 -4029.74,-3207.68 -5870.26,-3308.1l1148.04 5443.62c854.28,2351.75 2398.47,4422.71 4931.7,4674.12 1378.57,136.79 804.71,-190.16 1788.19,1085.88 742.97,963.89 2403.98,2697.97 2888.23,3473.53 -1062.38,-174.58 -4094.25,-1389.28 -5042.32,-1808.01 -3904.35,-1724.47 -3475.93,-800.25 -3957.87,-2698.47 -362.54,463.23 7.49,583.28 -252.88,1042.56 -993.55,-389.3 -310.96,-673.5 -736.17,-1802.08 -450.4,367.41 -332.24,615.6 -297.48,1281.83 -708.98,-268.97 -831.7,-1020.72 -1270.84,-1646.21 -297.11,429.8 -131.45,532.34 -10.99,1045.46 -802.74,-337.58 -514.41,-1259.86 -1595.91,-1595.92 28.23,489.86 241.57,862.56 567.83,1238.34l-1622.21 -373.07c134.49,587.38 495.19,553.4 1025.55,885.32l-971.16 467.32c-351.87,187.46 -127.96,51.22 -326.12,204.84l510.45 135.13c1259.49,14.43 606,-994.1 2429.09,-135.13 -188.19,276.56 222.03,-81.8 -307.32,315.46 -269.44,202.16 -129.29,61.51 -414.64,237.06 -414.58,255 -340.93,39.82 -477.8,525.17 1507.63,147.4 1104.77,-1231.17 2179.15,-591.1 -268.7,348.84 -922.06,545.44 -1336.05,811.01 448.34,324.66 1016.08,100.37 1479.64,-218.76 467.09,-321.62 399,-447.05 973.64,-105.66 -505.26,615.92 -947.9,474.08 -1134.06,1292.13 927.29,-178.99 1188.59,-676.53 1658.81,-1119.25l912.95 242.99z"/>
 </g>
</svg>
