<?xml version="1.0" encoding="UTF-8"?>
<!DOCTYPE svg PUBLIC "-//W3C//DTD SVG 1.1//EN" "http://www.w3.org/Graphics/SVG/1.1/DTD/svg11.dtd">
<!-- Creator: CorelDRAW 2019 (64-Bit) -->
<svg xmlns="http://www.w3.org/2000/svg" xml:space="preserve" width="500mm" height="500mm" version="1.1" style="shape-rendering:geometricPrecision; text-rendering:geometricPrecision; image-rendering:optimizeQuality; fill-rule:evenodd; clip-rule:evenodd"
viewBox="0 0 50000 50000"
 xmlns:xlink="http://www.w3.org/1999/xlink">
 <defs>
  <style type="text/css">
   <![CDATA[
    .str0 {stroke:azure;stroke-width:20;stroke-miterlimit:22.9256}
    .fil0 {fill:azure}
   ]]>
  </style>
 </defs>
 <g id="Слой_x0020_1">
  <metadata id="CorelCorpID_0Corel-Layer"/>
  <path class="fil0 str0" d="M11798.78 20970.68c2067.35,493 2798.98,1414.12 1924.35,3200.64 -192.28,392.76 -278.73,977.24 -508.79,1377.97 -574.98,-754.08 -1046.37,-946.36 -1548.82,-2077.65 -603.63,-1359.15 -402.5,-1280.66 133.26,-2500.96zm12370.52 3111.53c1435.21,-92.6 2210.44,-93.58 3256.9,566.46 795.68,501.89 838.72,1648.87 1242.19,2645.54 -2802.29,-472.46 -3483.93,-1088.89 -4499.09,-3212zm3632.94 -6806.37c68.05,18.16 1679.2,1309.45 1770.63,1620.74 299.65,1020 -559.14,1790.9 -1145.16,2104.8l-461.14 -1764.44c-808.9,810.62 28.88,1714.04 127.4,2187.24 -517.97,286.93 -657.24,534.27 -1263.94,688.41 24.5,-3050.93 8.05,-2423.97 972.21,-4836.75zm4849.56 5783.2c1126.53,-167.83 2502.59,-371.94 3437.07,312.08 513.08,375.53 1314.3,1782.15 1527.4,2674.05 -1756.76,-286.37 -4630.54,-1606.95 -4964.47,-2986.13zm13295.96 1775.81c783.42,190.09 1385.51,264.57 2004.28,-116.83 182.08,-913.05 -286.89,-1191.69 -567.99,-1765.04 740.66,-429.1 1080.18,-379.35 1537.97,-1150.24 -121.07,-1046.6 -682.07,-1247.32 -1730.4,-1329.72 8.67,-633.34 -127.67,-913.1 -340.17,-1267.06 -1362.18,-280.97 -2098.42,490.86 -2707.21,1193.84 -906.54,1046.69 -422.99,1473.97 -2503.57,1177.4 160.74,-327.83 892.65,-1137.11 1238.13,-1625.5 1024.62,-1448.3 1016.37,-883.85 1055.18,-1802.26l-4108.85 729.58c-1118.8,465.94 -1498.66,1338.05 -2067.63,2672.93 -992.48,191.07 -1877.91,98.56 -2779.74,297.13 -2463.65,542.47 -5628.28,1304.19 -8041.07,1304.98l3494.7 -2645.4c503.57,620.67 456.38,629.2 1389.24,789.76 548.52,94.41 1259.1,142.67 1904.83,89.66 1680.88,-138.01 2850.5,28.98 3153.45,-899.92 -381.11,-455.87 -1439.27,-864.1 -1976.8,-1186.66 -321.96,-193.17 -718.49,-396.3 -1126.2,-539.44l-908.22 -349.03c23.81,-7.91 -73.03,-35.49 -104.05,-61.11 529,-443.76 484.52,-557.51 954.23,-1108.83 836.24,355.26 804.1,1064.58 1811.67,1178.05 1185.88,133.54 1379.32,-414.51 1395.53,-1406.1 842.54,-96.98 1430.65,-313.49 1896.17,-760.42 -16.68,-1279.36 -725.53,-1145.12 -1868.87,-1302.23 87.24,-1384.63 -632.65,-1510.81 -1591.26,-949.9 -445.26,-525.51 -404.59,-1203.85 -1150.29,-1521.9 -782.91,176.16 -626.92,655.98 -985.91,1244.75 -455.96,-252.23 -894.79,-432.4 -1549.61,-202.99 -613.55,1465.16 1100.17,2231.77 1678.27,3022.04 -170.76,417.4 -2320.79,2724.03 -3268.08,3023.36 96.04,-1552.93 -121.16,-1396.37 -948.51,-2059.48 -1222.21,-979.53 92.46,-1159.46 -513.12,-2111.28 -583.69,68.94 -709.41,385.82 -1247.83,1213.59 -323.54,497.38 -593.1,1122.86 -817.98,1630.81 -692.69,1564.38 -649,2545.86 -35.45,4054.3 -483.55,381.44 -786.08,341.01 -1323.15,664.51 -760.27,457.92 -372.45,457.22 -1601.18,279.29 -1188.29,-172.07 -2303.22,-226.1 -3427.01,-540.84 383.59,-817.33 414.05,-602.09 555.47,-1701.37 255.39,-1985.14 678.76,-994.06 581.17,-2079.6 -1069.38,-337.15 -4329.03,248.22 -5055.11,2466.26 1844.23,-496.31 2218.17,-1833.01 3900.54,-1633.14 -102.85,1113.07 -92.37,1909.03 -582.39,2680.39 -838.57,143.7 -1013.06,105.97 -1741.29,-185.9 373.34,-320.42 831.17,-636.65 919.67,-1246.89 -899.36,-63.03 -1189.41,404.59 -1400.37,1050.04 -1813.49,-129.95 -7246.84,-2701.48 -8900.79,-3732.01l-5434.14 -3932.92c-603.39,-506.74 -875.6,-1230.4 -1940.18,-1361.2 263.27,1462.28 3469.12,3470.99 4723.93,4330.89 1401.96,960.71 3435.45,2692.27 5477.69,3246.71l-164.24 235.32c-422.53,562.17 -742.3,726.64 -578.76,1766.58 225.03,1430.56 2220.97,4422.33 3586.32,4244.54 236.63,-1129.89 -301,-1006.08 299.09,-2496.73 446.79,-1109.76 294.99,-1387.98 -55.57,-2377.52 2359.08,425.69 5150.51,3083.02 6455.91,4760.31 -589.42,1074.36 -1220.16,1953.19 -1059.41,3782 81.79,930.76 547.03,3227.93 1306.19,3613.98 530.96,-274.12 1005.98,-1463.21 1355.79,-2101.91 585.05,-1068.21 607.68,-1146.37 711.88,-2585.64 406.32,344.46 840.63,1184.94 1198.83,1582.83 497.89,552.99 776.76,812.77 1145.72,1624.37 -947.29,855.25 -2495.84,916.46 -2402.17,2634.23 385.82,301.46 281.63,267.41 938.4,335.14 -75.6,962.24 95.54,1490.6 830.98,1906.23 1271.12,-47.19 945.29,-577.82 1643.24,-1268.41 539.82,510.51 470.37,879.19 1446.49,634.97 199.5,-431.28 192.61,-922.56 137.65,-1535.83 735.35,180.17 1593.07,568.42 1963.84,-323.49 381.12,-916.74 -137.36,-1419.33 -709.82,-1774.51 336.07,-690.77 507.3,-230.47 268.11,-1254.11 -506.42,-275.98 -988.19,-425.74 -1832.82,-214.96 -979.02,244.26 -594.92,596.91 -1692.15,749.74 -583.6,-1238.37 -1062.49,-1680.41 -1676.83,-2552.75 -2050.62,-2912.03 -1919.59,-2490.62 -3928.21,-4622.91 -580.71,-616.48 -1851.17,-1406.7 -2250.64,-2115.37l4915.8 741.27c1210.98,1198.5 838.2,2455.03 2695.01,3229.19 1248.01,520.39 2261.03,665.72 3568.01,929.03 286.79,57.81 398.67,126.7 709.97,98.52 50.16,-4.57 99.68,-16.35 144.95,-24.18l288.05 -104.29c81.52,-8.38 98.89,-39.5 143.14,-68.56 -193.91,-656.17 -343.01,-506.56 -950.69,-944.69 -1291.94,-931.5 -594.31,-1511.42 -1259.38,-2339.75 -356.24,-443.67 -529.75,-377.43 -863.31,-813.37l4141.18 -493.84c543.26,631.3 529.7,889.95 1251.64,1366.28 561.66,370.54 1026.48,572.42 1750.42,905.23 771.13,354.47 3085.59,1255.42 4032.83,1128.86 57.71,-611.5 -770.43,-1880.98 -1171.94,-2516.57 -665.86,-1054 -722.22,-1249.54 -1977.64,-1714.78 263.92,-139.37 2789.01,-299.98 3334.83,-338.27 3496.93,-245.38 1559.4,29.96 3483.14,52.08 -177.93,1470.94 -1250.39,2349.53 -322.14,3685.11 914.78,202.02 1184.75,-246.17 1614.4,-595.38 851.39,756.27 585.7,1841.95 2293.36,1446.53 447.3,-944.49 169.74,-996.9 -87.15,-2039.58z"/>
 </g>
</svg>
