<?xml version="1.0" encoding="UTF-8"?>
<!DOCTYPE svg PUBLIC "-//W3C//DTD SVG 1.1//EN" "http://www.w3.org/Graphics/SVG/1.1/DTD/svg11.dtd">
<!-- Creator: CorelDRAW 2019 (64-Bit) -->
<svg xmlns="http://www.w3.org/2000/svg" xml:space="preserve" width="500mm" height="500mm" version="1.1" style="shape-rendering:geometricPrecision; text-rendering:geometricPrecision; image-rendering:optimizeQuality; fill-rule:evenodd; clip-rule:evenodd"
viewBox="0 0 50000 50000"
 xmlns:xlink="http://www.w3.org/1999/xlink">
 <defs>
  <style type="text/css">
   <![CDATA[
    .str0 {stroke:azure;stroke-width:20;stroke-miterlimit:22.9256}
    .fil0 {fill:azure}
   ]]>
  </style>
 </defs>
 <g id="Слой_x0020_1">
  <metadata id="CorelCorpID_0Corel-Layer"/>
  <path class="fil0 str0" d="M17290.84 40058.19c73.83,-3111.43 5656.49,-3268.84 8092.56,-3123.1l1016.67 145.53c373.21,176.36 89.39,-19.68 378.28,259.94 -561.96,194.56 -1186.78,623.04 -1928.17,1003.75 -696.22,357.47 -1441.51,593.73 -2183.94,853.58 -2137.42,748.02 -2854.23,877.64 -5375.4,860.3zm5780.47 -10886.97c823.98,-1151.53 3324.72,-1481 5117.12,-1194.8 1608.89,256.9 3254.84,1090.02 4886.14,1500.69 -576.96,1015.71 -6953.12,1685.1 -10003.26,-305.89zm-11000.11 -66.58c1465.18,1305.99 4332.76,4238.78 4963.65,6047.08 -2514.23,-159.58 -3596.36,-1312.28 -4633.14,-2707.53 -860.26,-1157.78 -2053.54,-3233.73 -2363.2,-4920.18 676.15,587.67 1383.46,1001.89 2032.69,1580.63zm2346.89 -6780.54c1602.17,1555.3 4106.91,4647.1 4561.45,6793.84 -2117.27,-237.73 -3398.81,-1711.84 -4254.78,-3280.2 -627.38,-1149.45 -1935.58,-3962.72 -2213.38,-5293.25 528.8,632.58 1292.21,1183.1 1906.71,1779.61zm6244.51 -1491.84c893.38,-145.71 1412.81,144.57 2530.66,-193.96 3597.66,-1089.45 3115.86,-1378.21 5290.17,-2873.56 -442.66,924.37 -1187.47,1726.28 -1434.96,2929.31 -461.73,2244.42 99.79,2742.74 221.39,3583.32 -949.39,867.49 -3359.97,3014.24 -4003.9,3890.97 -509.29,-246.54 -445,-298.65 -1079.4,-131.79 3.03,922.77 -7.72,368.44 324.31,933.96l-2916.18 3512.39c-292.1,412.7 -565.17,797.31 -915.97,1129.34l689.11 -3829.29c546.44,-356.48 -563.78,247.97 324.74,-110.55 47.26,-19.07 298.35,105.65 610.6,-501.18 -129.14,-281.87 -75.12,-182.59 -286.24,-367.79l-304.59 -189.74c-160.35,-495.03 477.12,-3722.3 598.72,-4523.47l916.18 -211.6c47.69,-482.97 156.07,-539.85 -135.64,-882.63l-572.45 -247.27 143.45 -1916.46zm14069.58 -1079.75c446.17,-44.3 608.57,-281.26 770.83,-521.9 -322.75,-192.83 253.17,-145.31 -517.01,-117.18 -137.94,5.03 -221.52,43.83 -356.91,90.47 -204.96,70.67 -352.09,167.6 -516.87,252.35 313.65,-176 595.51,-398.79 641.99,-956.06 -617.15,21.8 -711.31,271.59 -1153.4,537.98l769.65 -1031.06 -415.34 -156.06c-217.15,-47.39 42.91,85.27 -222.44,3.16 -84.58,-929.92 869.23,-1538.92 1683.97,-1704.86 4060.26,-826.88 1921.02,6074.69 -568.2,4304.71 430.52,-342.77 619.96,-118.61 960.88,-611.72 -458.79,-362.29 -503.61,-145.01 -1077.15,-89.83zm-13886.38 563.61c-12.1,-949 2269.17,-2531.31 3266.98,-3033.84 1482.82,-746.72 3475.37,-1068.47 5357.8,-1130.25 -473.57,736.1 -1208.24,1112.04 -1796.04,1617.21 -1633.29,1403.67 -4498.1,2946.62 -6828.74,2546.88zm9656.36 -5222.33c873.57,-663.44 658.11,-1067.78 1843.5,-1676.73 -196.12,1893.57 -2196.07,6401.69 -3206.28,8261.58 -772.04,1421.4 -844.22,1909.92 -1536.02,2222.26 -979.47,-1490.92 -51.89,-3777 749.72,-5140.48 573.1,-974.79 827.74,-1626.92 1221.84,-1990.94 1497.52,-1383.33 1285.06,-599.8 927.24,-1675.69zm-10062.73 2145.05c-2084.89,-288.54 -3136.19,-1425.9 -4091.43,-2807.37 -627.64,-907.68 -1909.44,-3376.96 -2317.25,-4327.56 2081.11,778.54 5809.78,4208.65 6408.68,7134.93zm1221.8 -4717.98c1323.99,-2706.23 6173.24,-3707.38 8706.07,-4579.08 -440.1,884.36 -2456.75,2540.45 -3551.89,3162.8 -1102.11,626.34 -3684.75,1701.7 -5154.18,1416.28zm-1502.16 -5009.13c32.08,-649.35 -637.91,-1101.16 -424.01,-2103.65 455.4,-2134.43 2528.06,-2311.48 3277.81,-1018.79 416.13,717.46 450.64,1531.76 349.5,2372.08 -780.84,-300.94 -1790.01,-718.41 -2259.63,303.2 -107.38,-724.92 -49.64,-606.18 -593.91,-726.26 -518.91,510.06 -365.58,268.99 -349.76,1173.42zm1245.09 1722.25c1203.73,-173.18 2624.13,-1672.26 2525.37,-3297.36 -51.02,-839.58 -610.51,-1738.12 -581.94,-2256.9 44.95,-816.22 359.29,-1475.72 269.3,-2496.59 -782.4,-122.12 -1102.77,296.35 -1685.1,610.12l-445.74 -1255.97c-736.01,132.18 -936.04,1159.43 -1376.4,1610.54 -671.55,-306.71 -439.84,-455.45 -1250.76,-561.14 -85.71,857.18 167.85,1556.74 348.76,2347.12 535.47,2339.61 -1000.54,3554.48 1852.22,5178.19 -15.74,2841.8 313.81,1849.97 -603.45,2697.18 -176.01,162.52 -262.06,11.14 -265.01,543.06 -3.85,707.09 53.46,353.05 275.41,527.97l412.49 191.35c14.91,-29.35 71.7,18.9 93.64,41.14l-311.61 3166.45c-1228.09,-2122.12 -1258.18,-2324.75 -3036.05,-4198.73 -474.22,-499.79 -3493.14,-2745.11 -4394.19,-2772.73 -61.95,858.05 888.74,1859.89 1283.45,2667.26 1271.92,2601.85 2439.23,5302.88 6070.32,5552.93l-272.38 2554.11c-392.76,275.37 -950.38,-470.06 -943.62,997.46 597.08,489.39 318.85,55.32 865.2,297.44l-484.97 3512.21c-41.66,25.06 -100.61,39.63 -135.51,53.93 -533.57,218.75 -824.37,298.6 -820.98,972.93 441.05,351.58 134.25,270.77 750.45,131.05 -19.34,683.73 -83.71,1561.46 -351.02,2083.36 -24.49,-28.56 -56.27,-69.18 -70.44,-88.3 -555.94,-748.2 -869.97,-1665.9 -1367.38,-2473.22 -795.15,-1290.56 -4713.09,-5707.73 -5844.94,-5821.44 -70.01,388.68 2236.66,9599.87 7092.41,9661.6l-538.03 2879.64c-593.22,-108.33 -690.15,-238.47 -925.55,400.05 268.61,324.09 490.26,310.04 827.88,461.21l-550.34 2167.64c-397.14,-347.25 -1347.01,-2020.94 -1750.52,-2559.8 -1182.31,-1578.71 -4689.15,-5441.6 -6617.71,-6000.61 246.75,2073.01 1764.65,4706.32 2718.07,6070.19 1385.5,1981.93 2687.63,2495.03 5649.98,2915.79l-381.44 1642.14c-387.65,-476.82 -869.37,-270.73 -1064.01,350.24 304.63,484.88 514.27,342.69 904.65,473.39l-2187.15 7215.61c-1308.94,209.91 -1121.32,521.3 -370.78,1181.1 -251.91,714.21 -660.06,2081.37 -686.2,2861.34 673.19,-603.88 1484.16,-4105.21 1979.92,-5308.29 673.03,-267.61 1149.41,138.59 1124.88,-917.57 -435.85,-363.98 -717.59,-142.49 -792.85,-147.65l707.14 -2581.26c2654.13,83.28 4241.69,-213.2 6412.28,-1087.89 1213.26,-488.91 4254.55,-1926.87 4835.76,-2759.34 -391.15,-231.93 -2210.16,-58.13 -2899.01,-136.12 -2038.41,-230.89 -6544.45,76.04 -7670.41,1718.78 268.08,-2835.16 676.97,-1161.55 1375.36,-2194.39 -294.36,-832.34 -211.21,-231.53 -767.75,-611.72 463.77,-1275.91 1241.49,-1843.9 1614.7,-2769.88 412.22,48.12 960.01,359.47 983.37,-275.62 28.31,-768.66 -572.28,-121.08 147.61,-1014.33 512.19,-635.66 878.99,-1115.34 1475.02,-1735.26 573.67,18.26 1846.32,615.89 2662.93,858.49 2971.32,882.75 6241.25,28.78 8914.19,-739.05 -215.33,-553.12 -453.97,-575.75 -1063.97,-715.47 -3746.48,-858.13 -3955.95,-2000.82 -8650.57,-1187.3 415,-903.91 1121.32,-1238.28 1639.19,-1908.88 371.87,184.03 747.16,702.77 1183.7,253.69 419.34,-431.34 -51.85,-785.91 -273.93,-1012.89 637.86,-633.14 1290.25,-1069.69 1874.97,-1665.33 655.38,-667.61 1341.72,-919.7 1818.97,-1524.79 1248.94,512.71 1337.51,434.16 936.43,-734.58l1051.69 -913.19c5083.74,2707.57 4582.99,-1419.71 6176.4,-2125.98 681.96,-302.33 1678.03,-716.64 1721.86,-1447.45 -490.86,-439.76 -1106.58,-262.75 -1735.9,-458.79 327.56,-335.4 592.78,-290.62 666.65,-1076.23l-2037.72 -238.91 82.76 -1545.55c-593,58.22 -1154.92,900.23 -1556.52,1284.49 -1011.08,967.38 -222.48,584.72 -1592.29,1313.84 -1041.59,554.42 -2043.87,2229.94 -1901.72,3932.72 -1035.22,942.37 -2389.29,1781.39 -3398.38,2687.29 594.82,-848.38 1647.52,-3370.28 2178.91,-4553.07 708.1,-1576.07 1243.27,-3507.84 1474.5,-5253.11 -882.02,-13.09 -1970.69,1367.68 -2391.98,2057.83 -947.56,1552.27 -3684.4,195.73 -6953.9,2207.78 -1548.93,953.21 -1576.5,1362.31 -2570.15,2107.13l222.74 -2006.64c148.34,-269.42 679.05,-253.6 931.96,-764.62 -197.73,-553.25 -241.86,-560.97 -776.12,-766.02l202.58 -2573.27c3648.77,-667 5814.12,-1015.2 8362.25,-3838.13 481.41,-533.35 1668.75,-1337.73 1674.69,-2316.73l-5573.34 1935.24c-4268,2031.26 -2663.36,1664.94 -4358.82,2967.03l-94.46 -2651.96z"/>
 </g>
</svg>
