<?xml version="1.0" encoding="UTF-8"?>
<!DOCTYPE svg PUBLIC "-//W3C//DTD SVG 1.1//EN" "http://www.w3.org/Graphics/SVG/1.1/DTD/svg11.dtd">
<!-- Creator: CorelDRAW 2019 (64-Bit) -->
<svg xmlns="http://www.w3.org/2000/svg" xml:space="preserve" width="500mm" height="500mm" version="1.1" style="shape-rendering:geometricPrecision; text-rendering:geometricPrecision; image-rendering:optimizeQuality; fill-rule:evenodd; clip-rule:evenodd"
viewBox="0 0 50000 50000"
 xmlns:xlink="http://www.w3.org/1999/xlink">
 <defs>
  <style type="text/css">
   <![CDATA[
    .str0 {stroke:azure;stroke-width:20;stroke-miterlimit:22.9256}
    .fil0 {fill:azure}
   ]]>
  </style>
 </defs>
 <g id="Слой_x0020_1">
  <metadata id="CorelCorpID_0Corel-Layer"/>
  <path class="fil0 str0" d="M20763.32 6693.85c163.46,-1063.95 145.91,-1906.98 345.56,-3034.32 302.74,-1709.86 -617.45,-1754.13 -185.5,-2718.65 469.72,-1048.89 2081.15,-488.01 2269.47,456.35 320.81,1608.89 -779.89,1623.77 -1547.55,1967.99l-109.42 3273.14c1327.63,-417.72 2521.38,-1452.19 3781.76,-1870.82 -560.26,1507.42 -2556.14,1906.06 -3672.78,2461.3 -494.85,1454.49 -45.56,11510.36 162.08,13238.39 245.55,2043.2 3465.15,5149.43 4922.12,7109.04 3359.95,4518.74 1030.86,-1794.8 828.67,-4613.7 -186.75,-2604.76 -1035.43,-3215.05 -2204.62,-5126.32 -450.47,-736.37 -207.39,-46.41 -334.96,-930.23 1379.16,708.96 1234.66,1752.32 2220.23,2610.78 543.68,-3517.1 -1626.62,-3632.61 -772.63,-5009.96 911.85,-1470.65 3101.85,6.36 1907.5,1735.24 -578.13,836.85 -729.84,-31.81 -566.68,1564.3 115.11,1126.45 -1.59,2350.62 296.17,3346.92 1011.07,-222.53 1803.11,-1151.29 3034.56,-1385.99 -1171.12,2126.89 -3184.78,598.27 -2900.53,3685.43 138.83,1507.43 750.54,6454.16 1588.47,7850.52 1024.04,1706.56 3426.63,4101.12 4730.36,5656.42 -919.88,-4931.77 596.92,-7185.25 -895.75,-10071.35 -368.21,-711.92 -977.91,-1848.66 -1083.78,-2608.54 657.97,301.85 1876.03,3001.73 2089.5,2924.19 -16.18,-970.49 452.31,-2138.56 495.57,-3200.79 33.96,-832.57 -197.68,-791.06 -312.12,-1420.81 -360.7,-1985.54 2212.63,-1938.5 2079.95,-142.64 -94.52,1280.06 -913.84,1178.02 -1255.73,1914.15 -380.87,820.26 -765.67,4584.49 -519.42,5249.73 688.61,-1074.66 1747.7,-3082.62 2995.74,-3448.38 -621.74,1716.54 -3072.13,3597.42 -3253.26,5054.34 -248.06,1995.2 31.88,4375.51 416.65,5980.19 419.48,1749.67 2143.03,3196.4 3250.13,4342.41 1154.11,1194.7 2753.29,2886.76 4111.32,3770.44 -363.63,-1979.91 -662.2,-3292.22 -817.12,-5725.94 -140.48,-2207.45 -1987.24,-3176.43 -2171.52,-4814.95 519.18,226.32 333.17,137.29 675.44,522.76 538.98,606.85 808.92,1360.04 1417.78,1956.35 100.8,-945.58 603.82,-2923.16 473.56,-3617.64 -172.31,-918.52 -985.15,-2467.57 1642.08,-1646.98 405.21,1796.68 -164.8,1779.55 -899.89,2104.14 -34.28,15.11 -146.13,114.99 -156.8,70.43 -10.86,-45.06 -108.56,42.25 -158.07,72.39 -93.4,1168.38 -402.72,3105.27 -41.86,3940.17 753.74,-434.89 1224.61,-1071.72 1716.65,-1840.8 261.44,555.2 485.99,-309.47 24.86,952.42 -10.87,29.82 -507.33,672.32 -511.5,676.61 -1964.86,2027.42 -1772.83,-64.5 -572.53,7251.41 174.5,1063.69 -288.41,496.8 575.59,1261.18 1063.14,940.48 2733.19,1727.58 3121.96,3164.83 -1944.86,-1007.92 -4769.54,-3795.8 -6451.75,-5313.28 -1475.52,-1331.06 -1298.63,-1734.91 -3605.92,-2356.19 -5498.44,-1480.62 -4232.42,-1613.39 -6742.52,1617.1l-701.34 624.25c541.52,-1847.77 1060.81,-1772.28 1751.76,-3193.29 -601.14,-82.35 -3885.76,-174.48 -4226.46,-52.8 -762.95,272.4 -407.72,816.66 -1569.8,782.59 -785.91,-23.02 -1424.99,-436.12 -1293.39,-1270.09 298.82,-1893.13 2272.19,-48.04 3247.95,-39.12l3604.61 -204.12c-655.19,-860.28 -1797.13,-1644.05 -2032.48,-2543.89 1202.61,706.12 2091.73,2375.11 3176.58,2711.67 644.3,199.81 1757.72,156.36 2606.83,353.85 852.66,198.34 1695.2,447.13 2560.5,645.21 -328.17,-585.86 -606.8,-888.99 -1147.42,-1473.16 -477.1,-515.51 -709.22,-855.5 -1220.76,-1429.87 -1067.5,-1198.62 -3726.2,-4951.88 -4987.27,-5580.25 -732.31,-364.91 -3717.38,-1413.61 -4492.78,-1532.49 -786.83,693.46 -727.71,1187.79 -1655.91,1729.92 -1185.27,692.31 -815.24,491.75 -1849,1384.93 -155.96,-689.35 762.79,-1248.85 1340.96,-1643.55 545.49,-372.41 1084.29,-1295.23 1627.47,-1538.26 -986.15,-194.37 -3141.51,-825.54 -4047.68,-678.64 -994.48,161.11 -1363.05,1780.34 -3105.45,-69.72 222.7,-1043.58 654.7,-1127.13 1471.15,-1271.92 1263.32,119.83 -620.09,892.94 4145.36,961.83 -891.18,-1102.7 -1973.6,-1724.49 -2449.32,-3208.33 872.34,555.6 1047.02,951.52 1776.03,1648.89 3276.94,3134.66 1473.56,1425.67 6781.69,3394.2 -798.8,-1429.06 -3363.15,-4054.12 -4596.46,-5752.66l-4604.36 -5883.85c-997.68,-1171.51 -1669.46,-2023.17 -2199.78,-2991.99 -1083.53,-1979.4 -6487.81,-3940.72 -7671.57,-3661.69 -1131.77,266.83 -2132.21,1163.73 -3492.2,1149.28 544.94,-687.72 2013.02,-1181.79 2795.41,-1484.04 -1088.86,-567.09 -1497.92,-560.69 -2656.42,-794.03 -1754.92,-353.54 -792.36,-359.77 -2072.52,113.33 -1987.81,734.53 -2893.05,-1667.84 -840.9,-2133.7 974.37,115.43 1034.18,526.32 1183.08,1222.98 516.43,79.16 1088.42,179.98 1603.36,246.57l1288.55 -50.94c-347.21,-888.64 -2110.3,-2498.07 -2231.7,-3366.65 640.51,99.01 829.54,472.19 1128.8,892.48 2657.46,3732.83 2049.14,2636.35 4490.99,3501.5l4733.23 1965.72c-1847.02,-4172.45 -4228.13,-3289 -5080.84,-4772.73l2447.88 850.16c-326.43,-1800.38 -1193.47,-1027.3 -1659.04,-1104.6 -567.81,-94.31 -2.17,16.1 -476.47,-171.33 -673.59,-266.22 -356.76,-268.23 -1196.02,-436.31l310.8 2149.26c609.84,118.74 543.62,43.21 1002.98,74.28 104.96,7.12 202.13,8.09 425.03,45.34l236.29 86.15c-657.31,806.94 -1169.76,593.92 -2176.86,107.2 -143.9,-459.11 -168.81,-1024.81 -339.44,-1580.62l-154.08 -1436.09c790.75,-133.29 1125.32,-22.97 2056.61,201.19 -992.4,-2270.66 1065.68,-2492.72 2256.11,-543.67 493.79,-978.34 872.21,-1841.11 1686.51,-2175.55 867.98,690.72 1601.24,2935.47 129.2,3869.39l117.08 -902.96c297.75,-1385.25 -293.49,-1685.42 -253.33,-2377.55 -608.18,541.14 -1225.19,1508.86 -1066.28,2492.05 -431.25,76.91 -458.84,-11.02 -923.82,51.38 38.54,978.36 -204.35,147.68 238.69,928.99 257.74,454.6 260.19,326.15 596.65,604.79 358.56,-1067.69 200.06,-2115.64 833.07,-2718.49 154.06,1134.83 -174.02,1996.72 -490.97,3225.53l1464.35 2307.14c352.12,486.45 414.71,697.73 784.37,1151.54l2346.23 3265.53c558.63,748.91 1025.82,1277.14 1565.75,2004.25 -24.02,-2324.79 -195.29,-4754.74 -277,-7269.38 -156.39,-4807.85 637.47,-4097.03 -1191.88,-6801.5 -950.54,86.44 -2563.3,928.06 -3273.59,-1289.13 -211.59,-660.53 -208.5,-1245.7 -207.12,-2005.34 1.22,-662.13 -460.62,-1510.97 62.02,-1869.03 1092.07,-748.05 4411.36,1505.83 4215.74,3856 -1076.97,-729.93 -450.29,-1121.84 -1277.11,-1962.95 -574.29,-584.28 -1484.04,-1134.65 -2407.13,-1350.31 -46.01,1693.14 -290.82,4804.23 2154.92,4312.93 17.16,-36.63 21.39,-100.59 20.29,-119.64 -1.11,-18.74 11.53,-96.05 7.78,-119.16 -3.8,-23.39 -7.66,-93.65 -15.32,-119.69 -217.29,-735.28 -1127.43,-1199.63 -1312.49,-1915.06 1001.66,430.29 2416.12,2281.09 3221.58,3095.06z"/>
 </g>
</svg>
