<?xml version="1.0" encoding="UTF-8"?>
<!DOCTYPE svg PUBLIC "-//W3C//DTD SVG 1.1//EN" "http://www.w3.org/Graphics/SVG/1.1/DTD/svg11.dtd">
<!-- Creator: CorelDRAW 2019 (64-Bit) -->
<svg xmlns="http://www.w3.org/2000/svg" xml:space="preserve" width="500mm" height="500mm" version="1.1" style="shape-rendering:geometricPrecision; text-rendering:geometricPrecision; image-rendering:optimizeQuality; fill-rule:evenodd; clip-rule:evenodd"
viewBox="0 0 50000 50000"
 xmlns:xlink="http://www.w3.org/1999/xlink">
 <defs>
  <style type="text/css">
   <![CDATA[
    .str0 {stroke:black;stroke-width:20;stroke-miterlimit:22.9256}
    .fil0 {fill:black}
   ]]>
  </style>
 </defs>
 <g id="Слой_x0020_1">
  <metadata id="CorelCorpID_0Corel-Layer"/>
  <path class="fil0 str0" d="M14958.09 44100.42c2194.86,-1949.12 3816.55,-2047.7 5145.69,356.65 292.21,528.59 885.17,1089.22 1156.49,1666.87 -1308.62,53.57 -1899.47,434.76 -3577.52,107.58 -2016.03,-393.11 -1767.95,-558.57 -2724.66,-2131.1zm13316.29 -11535.16c1031.64,-1697.45 1644.37,-2575.51 3219.89,-3237.09 1197.99,-503.01 2530.03,356.48 3977.38,689.08 -2753.55,2797.06 -3990.86,3080.33 -7197.27,2548.01zm-4825.7 -9500.55c74.43,-62.63 2811.43,-863.4 3236.09,-720.38 1391.54,468.56 1583.91,2050.8 1475.11,2962.52l-2361.84 -875.27c276.83,1557.24 1962.54,1324.52 2576.04,1587.72 -85.44,813.35 84.18,1166.8 -221.78,1975.41 -3433.14,-2443.5 -2736.68,-1928.45 -4703.62,-4930zm10384.43 -908.7c702.08,-1407.72 1560.69,-3126.53 3074.68,-3642.4 831.23,-283.27 3057.43,-76.18 4235.47,388.89 -1715.1,1761.26 -5485.01,3967.68 -7310.15,3253.51zm12537.52 -13640.06c835.43,-736.03 1396.46,-1358.4 1454.81,-2360.63 -889.07,-929.01 -1575.72,-618.94 -2447.13,-754.82 100.89,-1177.93 426.02,-1522.75 -83.86,-2651.2 -1280.23,-691.71 -1951.58,-215.8 -2874.91,905.28 -709.85,-511.3 -1134.39,-578.53 -1703.21,-618.33 -1396.55,1319.02 -1106.08,2763.32 -792.62,4008.88 466.66,1854.66 1333.07,1645.78 -649.98,3765.41 -243.7,-441.48 -579.97,-1910.53 -859.1,-2688.21 -827.63,-2306.28 -195.42,-1850 -1203.99,-2621.13l-2427.83 5227.41c-358.61,1635.01 327.52,2755.42 1387.59,4456.27 -569.64,1274.42 -1375.42,2203.15 -1864.8,3380.92 -1336.87,3217.49 -2980.69,7401.84 -4890.28,10132.86l-226.47 -6049.39c1101.11,-78.4 1073.39,-18.25 1993.74,-946.77 541.17,-545.97 1158.43,-1311.87 1609.74,-2084.58 1174.77,-2011.42 2289.87,-3202.78 1478.57,-4281.12 -817.65,70.31 -2117.48,944.52 -2908.13,1297.4 -473.53,211.38 -1017.38,499.27 -1502.19,847.31l-1114.12 751.4c9.91,-33.21 -97.98,54.54 -151.54,69.36 -83.3,-950.01 -247.25,-989.74 -499.22,-1957.83 1064.18,-665.02 1841.42,-66.99 2767.64,-1117.35 1090.11,-1236.24 623.09,-1889.1 -486.19,-2692.6 557.39,-1030.24 778.05,-1867.2 640.9,-2747.89 -1460.98,-994.14 -1870.35,-85.69 -2953.45,1083.76 -1497.82,-1195.1 -2210.63,-480.36 -2334.93,1048.57 -947.25,87.77 -1682.68,-495.37 -2633.05,96.65 -420.57,1025.45 245.92,1228.86 627.94,2101.3 -646.47,316.26 -1197.83,670.2 -1456.71,1592.86 1172.2,1854.46 3396.68,522.16 4748.72,493.71 337.14,523.75 1244.97,4783.22 833.62,6092.22 -1681.3,-1338.31 -1676.11,-968.56 -3081.62,-557.36 -2076.24,607.49 -1238.87,-1022.71 -2795.5,-1091.08 -384.16,715.11 -125.11,1108.29 385.29,2373.03 306.67,759.96 801.05,1560.27 1197.8,2216.95 1221.82,2022.58 2367.09,2750.29 4559.91,3250.38 48.77,849.23 -236.53,1159.57 -295.7,2023.49 -83.8,1222.94 222.49,783.51 -951.79,2033.1 -1135.63,1208.46 -2079.59,2427.37 -3325.59,3449.88 -621.19,-1081.26 -353.5,-945.3 -1485.5,-1975.76 -2044.24,-1860.88 -587.46,-1555.22 -1893.17,-2304.34 -1228.29,943.19 -3146.9,5095.43 -1211.81,7673.37 898.65,-2479.98 -317.92,-3961.57 1240.39,-5707.14 1178.15,997.74 2087.18,1616.13 2572.08,2781.43 -501.38,1062.74 -682.24,1230.33 -1589.16,1823.31 -66.98,-676.2 -62.32,-1444.69 -682.81,-2028.04 -783.46,967.84 -483.95,1666.34 79.43,2416.15 -1583.01,1949.31 -8795.26,6061.7 -11271.06,7117.38l-9108.32 3112.44c185.31,471.69 0,0 546.86,953.15 14.35,24.99 55.72,-15.64 83.82,-23.6 726.99,-206.03 1575.23,-482.06 2393.6,-762.58 1176.28,-403.21 2290.96,-815.7 2895.39,-1042.84 2197.27,-825.8 5766.91,-1755.89 8011.41,-3627.95l136.25 372.19c301.61,923.29 234.53,1415.38 1540.85,2053.75 1797.06,878.09 6763.07,988.35 7642.98,-697.51 -1091.26,-1162.44 -1376.85,-456.01 -2588.56,-2315.41 -902.07,-1384.33 -1337.11,-1432.85 -2734.49,-1819.67 2349.68,-2332.55 7567.11,-3387.32 10498.83,-3536.45 749.07,1517.71 1244.15,2927.35 3440.98,4193.52 1118.04,644.43 4085.99,1936.88 5123.97,1383.47 110.22,-817.9 -859.27,-2296.99 -1305.06,-3198.58 -745.57,-1507.89 -816.1,-1595.39 -2362.32,-2852.94 711.53,-187.06 2006.54,-13.03 2740.44,-103.33 1020.02,-125.56 1534.81,-235.44 2745.39,-10.33 217.75,1749.18 -939.15,3550.04 1078.91,4804.2 646.64,-197.91 525.61,-106.96 1122.3,-796.56 1029.04,847.47 1762.46,1072.17 2815.14,569.02 953.09,-1475.81 94.61,-1527.25 -134.24,-2863.89 1005.15,-206.65 1367.37,163.86 1863.91,-1134.12 -330.08,-567.26 -891.49,-948.47 -1629.01,-1371.87 786.15,-689.48 1904.67,-1352.69 1188.93,-2478.49 -735.64,-1157.18 -1714.93,-968.41 -2570.14,-601.83 -515.6,-927.27 140.88,-756.57 -1206.9,-1296.43 -713.3,354.56 -1264.25,781.16 -1694.52,1903.88 -498.79,1301.3 204.42,1145.87 -491.43,2508.55 -1863.49,-320.14 -2742.91,-128.23 -4216.53,-123.75 -4919.07,14.76 -4338.43,200.16 -8341.86,784.81 -1157.45,169.01 -3057.66,981 -4175.92,871.92l4731.25 -4975.95c2315.14,-421.39 3441.9,995.4 5788.22,-492.84 1577.09,-1000.24 2543.67,-2031.53 3876.53,-3302.06 292.5,-278.77 459.05,-350.83 673.65,-725.42 34.55,-60.38 60.43,-125.75 87.41,-183.18l110.07 -408.54c55.06,-98.89 33.6,-143.19 35.75,-216.27 -896.08,-300.13 -844.84,-12.94 -1821.81,327.81 -2077.1,724.43 -2180.96,-524.22 -3644.94,-427.49 -784.15,51.83 -846.58,300.63 -1604.02,332.91l2720.2 -5077.33c1144.57,-114.9 1426.53,105.25 2537.2,-334.56 864.05,-342.2 1460.56,-708.35 2410.4,-1264.06 1011.73,-591.97 3863.9,-2497.7 4470.72,-3669.85 -646.3,-549.5 -2738.62,-617.54 -3775.8,-666.45 -1719.98,-81.06 -1985.89,-172.11 -3506.43,880.18 51.26,-409.02 1868.91,-3393.67 2257.77,-4041.66 2491.25,-4151.54 1268.66,-1740.95 2816.94,-3900.4 1523.68,1366.06 1668.73,3275.38 3915.13,3282.47 952.95,-875.23 659.53,-1535.63 604.55,-2298.34 1529.97,-364.64 2548.18,795.68 3452.86,-1449.86 -714.63,-1254.05 -993.72,-981.45 -2377.06,-1516.35z"/>
 </g>
</svg>
